<svg xmlns="http://www.w3.org/2000/svg" xmlns:xlink="http://www.w3.org/1999/xlink" width="118" height="118" viewBox="0 0 118 118">
  <defs>
    <filter id="Rectangle_411831" x="0" y="0" width="118" height="118" filterUnits="userSpaceOnUse">
      <feOffset dy="3" input="SourceAlpha"/>
      <feGaussianBlur stdDeviation="3" result="blur"/>
      <feFlood flood-opacity="0.161"/>
      <feComposite operator="in" in2="blur"/>
      <feComposite in="SourceGraphic"/>
    </filter>
    <clipPath id="clip-path">
      <rect id="Rectangle_432357" data-name="Rectangle 432357" width="82" height="81" transform="translate(337.051 2869)" fill="#fff" stroke="#707070" stroke-width="1"/>
    </clipPath>
  </defs>
  <g id="Group_1271066" data-name="Group 1271066" transform="translate(-319 -2853)">
    <g transform="matrix(1, 0, 0, 1, 319, 2853)" filter="url(#Rectangle_411831)">
      <g id="Rectangle_411831-2" data-name="Rectangle 411831" transform="translate(9 6)" fill="#a4e0d4" stroke="#fff" stroke-width="2">
        <path d="M5,0H68a32,32,0,0,1,32,32V95a5,5,0,0,1-5,5H32A32,32,0,0,1,0,68V5A5,5,0,0,1,5,0Z" stroke="none"/>
        <path d="M5,1H68A31,31,0,0,1,99,32V95a4,4,0,0,1-4,4H32A31,31,0,0,1,1,68V5A4,4,0,0,1,5,1Z" fill="none"/>
      </g>
    </g>
    <g id="Mask_Group_1099686" data-name="Mask Group 1099686" clip-path="url(#clip-path)">
      <g id="alarm_2646884" transform="translate(334.851 2866.3)">
        <rect id="Rectangle_460400" data-name="Rectangle 460400" width="43.2" height="78.3" rx="2.7" transform="translate(21.6 4.05)" fill="#529ddf"/>
        <path id="Path_1300903" data-name="Path 1300903" d="M25.65,78.3V8.1h13.5a4.05,4.05,0,1,0,8.1,0h13.5V78.3Z" fill="#d4e4f0"/>
        <path id="Path_1300904" data-name="Path 1300904" d="M25.65,48.6h35.1V78.3H25.65Z" fill="#c1d7e6"/>
        <circle id="Ellipse_14153" data-name="Ellipse 14153" cx="2.7" cy="2.7" r="2.7" transform="translate(40.5 37.8)" fill="#e8ce60"/>
        <path id="Path_1300905" data-name="Path 1300905" d="M52.65,35.1a2.7,2.7,0,0,1-2.7,2.7H36.519a2.8,2.8,0,0,1-2.4-1.35,2.631,2.631,0,0,1-.373-1.328,2.7,2.7,0,0,1,.79-1.932l.015-.015a7.717,7.717,0,0,0,2.324-4.634l.623-5.608a3.018,3.018,0,0,1,3-2.683,2.7,2.7,0,1,1,5.4,0,3.02,3.02,0,0,1,3,2.683l.623,5.609a7.68,7.68,0,0,0,2.315,4.625A2.69,2.69,0,0,1,52.65,35.1Z" fill="#ebd975"/>
        <path id="Path_1300906" data-name="Path 1300906" d="M62.1,2.7H24.3a4.055,4.055,0,0,0-4.05,4.05v72.9A4.055,4.055,0,0,0,24.3,83.7H62.1a4.055,4.055,0,0,0,4.05-4.05V6.75A4.055,4.055,0,0,0,62.1,2.7Zm1.35,76.95A1.352,1.352,0,0,1,62.1,81H24.3a1.352,1.352,0,0,1-1.35-1.35V6.75A1.352,1.352,0,0,1,24.3,5.4H62.1a1.352,1.352,0,0,1,1.35,1.35Z"/>
        <path id="Path_1300907" data-name="Path 1300907" d="M60.75,6.75H47.25A1.35,1.35,0,0,0,45.9,8.1a2.7,2.7,0,1,1-5.4,0,1.35,1.35,0,0,0-1.35-1.35H25.65A1.35,1.35,0,0,0,24.3,8.1V78.3a1.35,1.35,0,0,0,1.35,1.35h35.1A1.35,1.35,0,0,0,62.1,78.3V8.1a1.35,1.35,0,0,0-1.35-1.35ZM37.971,9.45a5.4,5.4,0,0,0,10.458,0H59.4v37.8H27V9.45ZM27,76.95v-27H59.4v27Z"/>
        <circle id="Ellipse_14154" data-name="Ellipse 14154" cx="1.35" cy="1.35" r="1.35" transform="translate(41.85 6.75)"/>
        <path id="Path_1300908" data-name="Path 1300908" d="M51.582,22.63l2.683-.3a8.427,8.427,0,0,0-4.553-6.565l-1.224,2.407a5.729,5.729,0,0,1,3.094,4.461Z"/>
        <path id="Path_1300909" data-name="Path 1300909" d="M37.912,18.167l-1.222-2.408a8.4,8.4,0,0,0-4.555,6.577l2.683.3a5.705,5.705,0,0,1,3.094-4.469Z"/>
        <path id="Path_1300910" data-name="Path 1300910" d="M50.863,28.393l-.623-5.611a4.373,4.373,0,0,0-3.167-3.721,4.052,4.052,0,0,0-7.747,0,4.365,4.365,0,0,0-3.167,3.724l-.623,5.607a6.405,6.405,0,0,1-1.928,3.82l-.012.012-.013.013a4.028,4.028,0,0,0-1.183,2.9,4.1,4.1,0,0,0,4.119,4.018h2.863a4.05,4.05,0,1,0,7.636,0H49.95A4.05,4.05,0,0,0,52.781,32.2a6.36,6.36,0,0,1-1.917-3.81ZM44.55,40.5a1.35,1.35,0,1,1-1.35-1.35A1.35,1.35,0,0,1,44.55,40.5Zm6.357-4.446a1.348,1.348,0,0,1-.957.4H36.519A1.39,1.39,0,0,1,35.1,35.111a1.351,1.351,0,0,1,.4-.973,9.11,9.11,0,0,0,2.72-5.449l.623-5.606A1.666,1.666,0,0,1,40.5,21.6a1.35,1.35,0,0,0,1.35-1.35,1.35,1.35,0,1,1,2.7,0A1.35,1.35,0,0,0,45.9,21.6a1.67,1.67,0,0,1,1.657,1.482l.623,5.609a9.065,9.065,0,0,0,2.714,5.443,1.353,1.353,0,0,1,.014,1.92Z"/>
        <path id="Path_1300911" data-name="Path 1300911" d="M36.45,52.65a8.1,8.1,0,1,0,8.1,8.1A8.1,8.1,0,0,0,36.45,52.65Zm0,13.5a5.4,5.4,0,1,1,5.4-5.4,5.4,5.4,0,0,1-5.4,5.4Z"/>
        <path id="Path_1300912" data-name="Path 1300912" d="M35.1,60.191l-2.3,2.3L34.7,64.4l2.7-2.7a1.35,1.35,0,0,0,.4-.955V56.7H35.1Z"/>
        <path id="Path_1300913" data-name="Path 1300913" d="M49.95,54h8.1v2.7h-8.1Z"/>
        <path id="Path_1300914" data-name="Path 1300914" d="M47.25,59.4h10.8v2.7H47.25Z"/>
        <path id="Path_1300915" data-name="Path 1300915" d="M45.9,64.8h2.7v2.7H45.9Z"/>
        <path id="Path_1300916" data-name="Path 1300916" d="M51.3,64.8h6.75v2.7H51.3Z"/>
        <path id="Path_1300917" data-name="Path 1300917" d="M32.4,71.55h2.7v2.7H32.4Z"/>
        <path id="Path_1300918" data-name="Path 1300918" d="M41.85,71.55h2.7v2.7h-2.7Z"/>
        <path id="Path_1300919" data-name="Path 1300919" d="M51.3,71.55H54v2.7H51.3Z"/>
      </g>
    </g>
  </g>
</svg>
