<svg xmlns="http://www.w3.org/2000/svg" xmlns:xlink="http://www.w3.org/1999/xlink" width="118" height="118" viewBox="0 0 118 118">
  <defs>
    <filter id="Rectangle_411831" x="0" y="0" width="118" height="118" filterUnits="userSpaceOnUse">
      <feOffset dy="3" input="SourceAlpha"/>
      <feGaussianBlur stdDeviation="3" result="blur"/>
      <feFlood flood-opacity="0.161"/>
      <feComposite operator="in" in2="blur"/>
      <feComposite in="SourceGraphic"/>
    </filter>
    <clipPath id="clip-path">
      <rect id="Rectangle_436160" data-name="Rectangle 436160" width="82" height="81" transform="translate(344.781 3867.5)" fill="#fff" stroke="#707070" stroke-width="1"/>
    </clipPath>
  </defs>
  <g id="Group_1259933" data-name="Group 1259933" transform="translate(-326.781 -3852)">
    <g transform="matrix(1, 0, 0, 1, 326.78, 3852)" filter="url(#Rectangle_411831)">
      <g id="Rectangle_411831-2" data-name="Rectangle 411831" transform="translate(9 6)" fill="#e8de49" stroke="#fff" stroke-width="2">
        <path d="M5,0H68a32,32,0,0,1,32,32V95a5,5,0,0,1-5,5H32A32,32,0,0,1,0,68V5A5,5,0,0,1,5,0Z" stroke="none"/>
        <path d="M5,1H68A31,31,0,0,1,99,32V95a4,4,0,0,1-4,4H32A31,31,0,0,1,1,68V5A4,4,0,0,1,5,1Z" fill="none"/>
      </g>
    </g>
    <g id="Mask_Group_1099622" data-name="Mask Group 1099622" clip-path="url(#clip-path)">
      <g id="_x36_65-Plan_x2C__Schedule_x2C__Study_x2C__Time" transform="translate(341.906 3864.125)">
        <path id="Path_1404727" data-name="Path 1404727" d="M72.563,75.938H21.938V6.75h40.5V16.875H72.563Z" fill="#bce4ff"/>
        <path id="Path_1404728" data-name="Path 1404728" d="M77.625,5.063A3.375,3.375,0,1,1,74.25,8.438,3.374,3.374,0,0,1,77.625,5.063Z" fill="#3256c1"/>
        <path id="Path_1404729" data-name="Path 1404729" d="M7.594,57.375a2.531,2.531,0,1,1-2.531,2.531A2.532,2.532,0,0,1,7.594,57.375Z" fill="#3256c1"/>
        <path id="Path_1404730" data-name="Path 1404730" d="M75.938,57.375a13.5,13.5,0,1,1-3.375-8.929A13.446,13.446,0,0,1,75.938,57.375Z" fill="#757d8c"/>
        <path id="Path_1404731" data-name="Path 1404731" d="M28.688,13.5h13.5V27h-13.5Z" fill="#07cc66"/>
        <path id="Path_1404732" data-name="Path 1404732" d="M62.438,75.938v6.75H15.188v-67.5h6.75v60.75Z" fill="#94d4ff"/>
        <path id="Path_1404733" data-name="Path 1404733" d="M62.438,6.75,72.563,16.875H62.438Z" fill="#94d4ff"/>
        <path id="Path_1404734" data-name="Path 1404734" d="M77.625,21.938a1.688,1.688,0,1,1-1.687,1.688A1.688,1.688,0,0,1,77.625,21.938Z"/>
        <path id="Path_1404735" data-name="Path 1404735" d="M60.75,37.125a1.688,1.688,0,1,1-1.687,1.688A1.688,1.688,0,0,1,60.75,37.125Z"/>
        <path id="Path_1404736" data-name="Path 1404736" d="M13.5,6.75a1.688,1.688,0,1,1-1.687,1.688A1.688,1.688,0,0,1,13.5,6.75Z"/>
        <path id="Path_1404737" data-name="Path 1404737" d="M10.125,38.813A1.688,1.688,0,1,1,8.438,40.5,1.688,1.688,0,0,1,10.125,38.813Z"/>
        <path id="Path_1404738" data-name="Path 1404738" d="M10.125,70.875a1.688,1.688,0,1,1-1.687,1.688A1.688,1.688,0,0,1,10.125,70.875Z"/>
        <path id="Path_1404739" data-name="Path 1404739" d="M8.438,21.938A1.688,1.688,0,1,1,6.75,23.625,1.688,1.688,0,0,1,8.438,21.938Z"/>
        <path id="Path_1404740" data-name="Path 1404740" d="M62.438,84.375H15.188A1.688,1.688,0,0,1,13.5,82.688v-67.5A1.687,1.687,0,0,1,15.188,13.5h6.75a1.688,1.688,0,0,1,0,3.375H16.875V81H60.75V75.938a1.688,1.688,0,0,1,3.375,0v6.75A1.688,1.688,0,0,1,62.438,84.375Z"/>
        <path id="Path_1404741" data-name="Path 1404741" d="M72.563,18.563H62.438a1.688,1.688,0,0,1-1.687-1.687V6.75a1.688,1.688,0,0,1,3.375,0v8.438h8.438a1.688,1.688,0,0,1,0,3.375Z"/>
        <path id="Path_1404742" data-name="Path 1404742" d="M77.625,48.938a1.688,1.688,0,0,1-1.687-1.687V28.688a1.688,1.688,0,0,1,3.375,0V47.25A1.688,1.688,0,0,1,77.625,48.938Z"/>
        <path id="Path_1404743" data-name="Path 1404743" d="M82.688,55.688A1.688,1.688,0,0,1,81,54V43.875a1.688,1.688,0,0,1,3.375,0V54A1.688,1.688,0,0,1,82.688,55.688Z"/>
        <path id="Path_1404744" data-name="Path 1404744" d="M7.594,64.125a4.219,4.219,0,1,1,4.219-4.219A4.224,4.224,0,0,1,7.594,64.125Zm0-5.062a.844.844,0,1,0,.844.844A.845.845,0,0,0,7.594,59.063Z"/>
        <path id="Path_1404745" data-name="Path 1404745" d="M77.625,13.5a5.063,5.063,0,1,1,5.063-5.062A5.068,5.068,0,0,1,77.625,13.5Zm0-6.75a1.688,1.688,0,1,0,1.688,1.688A1.689,1.689,0,0,0,77.625,6.75Z"/>
        <path id="Path_1404746" data-name="Path 1404746" d="M72.563,77.625H21.938a1.688,1.688,0,0,1-1.687-1.687V6.75a1.687,1.687,0,0,1,1.688-1.687h40.5a1.688,1.688,0,0,1,1.193.494L73.756,15.682a1.688,1.688,0,0,1,.494,1.193V48.446a1.688,1.688,0,0,1-3.375,0V17.574L61.738,8.438H23.625V74.25h47.25V66.3a1.688,1.688,0,0,1,3.375,0v9.637A1.688,1.688,0,0,1,72.563,77.625Z"/>
        <path id="Path_1404747" data-name="Path 1404747" d="M62.438,72.563a15.189,15.189,0,1,1,11.39-5.142A15.2,15.2,0,0,1,62.438,72.563Zm0-27a11.814,11.814,0,1,0,8.86,4A11.826,11.826,0,0,0,62.438,45.563Z"/>
        <path id="Path_1404748" data-name="Path 1404748" d="M62.438,48.938A1.688,1.688,0,0,1,60.75,47.25V43.875a1.688,1.688,0,0,1,3.375,0V47.25A1.688,1.688,0,0,1,62.438,48.938Z"/>
        <path id="Path_1404749" data-name="Path 1404749" d="M62.438,72.563a1.688,1.688,0,0,1-1.687-1.687V67.5a1.688,1.688,0,0,1,3.375,0v3.375A1.688,1.688,0,0,1,62.438,72.563Z"/>
        <path id="Path_1404750" data-name="Path 1404750" d="M75.938,59.063H72.563a1.688,1.688,0,0,1,0-3.375h3.375a1.688,1.688,0,0,1,0,3.375Z"/>
        <path id="Path_1404751" data-name="Path 1404751" d="M52.313,59.063H48.938a1.688,1.688,0,0,1,0-3.375h3.375a1.688,1.688,0,0,1,0,3.375Z"/>
        <path id="Path_1404752" data-name="Path 1404752" d="M62.438,60.75a1.685,1.685,0,0,1-1.194-.494l-5.062-5.062a1.688,1.688,0,1,1,2.387-2.387l4.084,4.084,3.911-2.608a1.687,1.687,0,1,1,1.872,2.808l-5.062,3.375a1.683,1.683,0,0,1-.936.284Z"/>
        <path id="Path_1404753" data-name="Path 1404753" d="M42.188,28.688h-13.5A1.687,1.687,0,0,1,27,27V13.5a1.687,1.687,0,0,1,1.688-1.687h13.5A1.687,1.687,0,0,1,43.875,13.5V27A1.687,1.687,0,0,1,42.188,28.688ZM30.375,25.313H40.5V15.188H30.375Z"/>
        <path id="Path_1404754" data-name="Path 1404754" d="M62.438,28.688H47.25a1.688,1.688,0,0,1,0-3.375H62.438a1.688,1.688,0,0,1,0,3.375Z"/>
        <path id="Path_1404755" data-name="Path 1404755" d="M54,23.625H47.25a1.688,1.688,0,0,1,0-3.375H54a1.688,1.688,0,0,1,0,3.375Z"/>
        <path id="Path_1404756" data-name="Path 1404756" d="M55.688,40.5h-27a1.688,1.688,0,0,1,0-3.375h27a1.688,1.688,0,0,1,0,3.375Z"/>
        <path id="Path_1404757" data-name="Path 1404757" d="M48.938,45.563H28.688a1.688,1.688,0,0,1,0-3.375h20.25a1.688,1.688,0,0,1,0,3.375Z"/>
        <path id="Path_1404758" data-name="Path 1404758" d="M45.563,50.625H28.688a1.688,1.688,0,0,1,0-3.375H45.563a1.688,1.688,0,0,1,0,3.375Z"/>
        <path id="Path_1404759" data-name="Path 1404759" d="M43.875,55.688H28.688a1.688,1.688,0,0,1,0-3.375H43.875a1.688,1.688,0,0,1,0,3.375Z"/>
        <path id="Path_1404760" data-name="Path 1404760" d="M42.188,60.75h-13.5a1.688,1.688,0,0,1,0-3.375h13.5a1.688,1.688,0,0,1,0,3.375Z"/>
        <path id="Path_1404761" data-name="Path 1404761" d="M43.875,65.813H28.688a1.688,1.688,0,0,1,0-3.375H43.875a1.688,1.688,0,0,1,0,3.375Z"/>
      </g>
    </g>
  </g>
</svg>
