<svg xmlns="http://www.w3.org/2000/svg" xmlns:xlink="http://www.w3.org/1999/xlink" width="118" height="118" viewBox="0 0 118 118">
  <defs>
    <filter id="Rectangle_411831" x="0" y="0" width="118" height="118" filterUnits="userSpaceOnUse">
      <feOffset dy="3" input="SourceAlpha"/>
      <feGaussianBlur stdDeviation="3" result="blur"/>
      <feFlood flood-opacity="0.161"/>
      <feComposite operator="in" in2="blur"/>
      <feComposite in="SourceGraphic"/>
    </filter>
    <clipPath id="clip-path">
      <rect id="Rectangle_432357" data-name="Rectangle 432357" width="82" height="81" transform="translate(337.051 2869)" fill="#fff" stroke="#707070" stroke-width="1"/>
    </clipPath>
  </defs>
  <g id="Group_1256409" data-name="Group 1256409" transform="translate(-319 -2853)">
    <g transform="matrix(1, 0, 0, 1, 319, 2853)" filter="url(#Rectangle_411831)">
      <g id="Rectangle_411831-2" data-name="Rectangle 411831" transform="translate(9 6)" fill="#a4e0d4" stroke="#fff" stroke-width="2">
        <path d="M5,0H68a32,32,0,0,1,32,32V95a5,5,0,0,1-5,5H32A32,32,0,0,1,0,68V5A5,5,0,0,1,5,0Z" stroke="none"/>
        <path d="M5,1H68A31,31,0,0,1,99,32V95a4,4,0,0,1-4,4H32A31,31,0,0,1,1,68V5A4,4,0,0,1,5,1Z" fill="none"/>
      </g>
    </g>
    <g id="Mask_Group_1099600" data-name="Mask Group 1099600" clip-path="url(#clip-path)">
      <g id="employee_12650229" transform="translate(335.318 2867)">
        <path id="Path_1404392" data-name="Path 1404392" d="M42.844,17.531a4.993,4.993,0,1,0,4.993,4.993A4.995,4.995,0,0,0,42.844,17.531Z" fill="#fff"/>
        <path id="Path_1404393" data-name="Path 1404393" d="M31.848,78.951h21.77v1.383H31.848Z" fill="#635463"/>
        <path id="Path_1404394" data-name="Path 1404394" d="M68.549,60.225a.7.7,0,1,0,.7.7A.7.7,0,0,0,68.549,60.225Z" fill="#faefe8"/>
        <path id="Path_1404395" data-name="Path 1404395" d="M57.662,68.583h21.77v1.4H57.662Z" fill="#635463"/>
        <path id="Path_1404396" data-name="Path 1404396" d="M68.549,64.288a3.365,3.365,0,1,1,3.365-3.365A3.371,3.371,0,0,1,68.549,64.288Zm9.127-8.358H59.418v9.986H77.676Z" fill="#a79ba7"/>
        <path id="Path_1404397" data-name="Path 1404397" d="M63,51.155a1.333,1.333,0,0,1,2.666,0v2.114h5.767V51.155a1.331,1.331,0,0,1,2.662,0v2.114h.854V49.895a2.4,2.4,0,0,0-.1-.963,1.7,1.7,0,0,0-.727-.1H62.976a1.706,1.706,0,0,0-.727.1,2.408,2.408,0,0,0-.1.963v3.374H63V51.155Z" fill="#23ad7f"/>
        <path id="Path_1404398" data-name="Path 1404398" d="M16.921,42.873a3.294,3.294,0,1,0-3.294-3.294A3.3,3.3,0,0,0,16.921,42.873Z" fill="#faefe8"/>
        <path id="Path_1404399" data-name="Path 1404399" d="M42.844,30.178A7.657,7.657,0,1,1,50.5,22.524,7.666,7.666,0,0,1,42.844,30.178ZM60.7,24.109V20.938a.932.932,0,0,0-.51-.241l-3.45-.788a1.334,1.334,0,0,1-.991-.944,13.282,13.282,0,0,0-1.265-3.053,1.331,1.331,0,0,1,.028-1.368l1.888-3a.918.918,0,0,0,.189-.533L54.349,8.777a.944.944,0,0,0-.533.184l-3,1.888a1.331,1.331,0,0,1-1.368.033A13.348,13.348,0,0,0,46.4,9.612a1.325,1.325,0,0,1-.949-.986L44.67,5.171a1.008,1.008,0,0,0-.241-.51l-3.171,0a.888.888,0,0,0-.241.5l-.788,3.455a1.327,1.327,0,0,1-.944.986,13.387,13.387,0,0,0-3.053,1.269,1.331,1.331,0,0,1-1.368-.033l-3-1.888a.958.958,0,0,0-.533-.189L29.1,11.013a.9.9,0,0,0,.184.533l1.888,3a1.331,1.331,0,0,1,.033,1.368,13.3,13.3,0,0,0-1.269,3.053,1.327,1.327,0,0,1-.986.944l-3.455.788a.932.932,0,0,0-.51.241l0,3.167a.912.912,0,0,0,.5.245l3.455.783a1.328,1.328,0,0,1,.986.944A13.208,13.208,0,0,0,31.2,29.13a1.331,1.331,0,0,1-.033,1.368l-1.888,3a.968.968,0,0,0-.189.533l2.242,2.242a.918.918,0,0,0,.533-.189l3-1.888a1.323,1.323,0,0,1,.708-.2,1.306,1.306,0,0,1,.661.175,13.287,13.287,0,0,0,3.053,1.265,1.327,1.327,0,0,1,.944.986l.788,3.455a.931.931,0,0,0,.241.51h3.166a.957.957,0,0,0,.245-.51l.783-3.45a1.325,1.325,0,0,1,.949-.991,13.373,13.373,0,0,0,3.053-1.265,1.323,1.323,0,0,1,1.364.028l3,1.888a.927.927,0,0,0,.533.189l2.237-2.242A.867.867,0,0,0,56.4,33.5l-1.888-3a1.331,1.331,0,0,1-.028-1.368,13.376,13.376,0,0,0,1.265-3.053,1.327,1.327,0,0,1,.986-.944l3.455-.783a1.008,1.008,0,0,0,.51-.241Z" fill="#635463"/>
        <path id="Path_1404400" data-name="Path 1404400" d="M42.735,46.681a3.294,3.294,0,1,0,3.294,3.294A3.3,3.3,0,0,0,42.735,46.681Z" fill="#faefe8"/>
        <path id="Path_1404401" data-name="Path 1404401" d="M42.735,70.6a.7.7,0,1,0,.7.7A.7.7,0,0,0,42.735,70.6Z" fill="#faefe8"/>
        <path id="Path_1404402" data-name="Path 1404402" d="M68.549,42.873a3.294,3.294,0,1,0-3.3-3.294A3.3,3.3,0,0,0,68.549,42.873Z" fill="#faefe8"/>
        <path id="Path_1404403" data-name="Path 1404403" d="M16.921,64.312a3.365,3.365,0,1,1,3.365-3.365A3.37,3.37,0,0,1,16.921,64.312Zm9.132-8.381H7.79v9.986H26.053Z" fill="#a79ba7"/>
        <path id="Path_1404404" data-name="Path 1404404" d="M37.19,61.528a1.331,1.331,0,0,1,2.662,0v2.114h5.767V61.528a1.331,1.331,0,0,1,2.662,0v2.114h.854V60.268a2.639,2.639,0,0,0-.1-.967,1.738,1.738,0,0,0-.732-.1H37.167a1.72,1.72,0,0,0-.732.1,2.517,2.517,0,0,0-.1.967v3.374h.854V61.528Z" fill="#f7cb7f"/>
        <path id="Path_1404405" data-name="Path 1404405" d="M42.735,74.661A3.365,3.365,0,1,1,46.1,71.3,3.37,3.37,0,0,1,42.735,74.661ZM51.867,66.3H33.6v9.986H51.867Z" fill="#a79ba7"/>
        <path id="Path_1404406" data-name="Path 1404406" d="M6.039,68.583H27.8v1.383H6.039Z" fill="#635463"/>
        <path id="Path_1404407" data-name="Path 1404407" d="M11.376,51.155a1.331,1.331,0,0,1,2.662,0v2.114H19.8V51.155a1.333,1.333,0,0,1,2.666,0v2.114h.854V49.895a2.4,2.4,0,0,0-.1-.963,1.7,1.7,0,0,0-.727-.1H11.353a1.742,1.742,0,0,0-.732.1,2.6,2.6,0,0,0-.1.963v3.374h.854Z" fill="#ff7577"/>
        <path id="Path_1404408" data-name="Path 1404408" d="M16.921,60.244a.7.7,0,1,0,.7.7A.7.7,0,0,0,16.921,60.244Z" fill="#faefe8"/>
        <g id="Group_1262331" data-name="Group 1262331">
          <path id="Path_1404409" data-name="Path 1404409" d="M42.735,71.995a.7.7,0,1,1,.7-.7A.7.7,0,0,1,42.735,71.995Zm0-4.063A3.365,3.365,0,1,0,46.1,71.3,3.37,3.37,0,0,0,42.735,67.932Z" fill="#030403"/>
          <path id="Path_1404410" data-name="Path 1404410" d="M56.737,25.133a1.328,1.328,0,0,0-.986.944,13.368,13.368,0,0,1-1.265,3.053,1.331,1.331,0,0,0,.028,1.368l1.888,3a.866.866,0,0,1,.184.533l-2.237,2.242a.927.927,0,0,1-.533-.189l-3-1.888a1.323,1.323,0,0,0-1.364-.028A13.376,13.376,0,0,1,46.4,35.43a1.324,1.324,0,0,0-.949.991l-.783,3.45a.958.958,0,0,1-.245.51H41.258a.932.932,0,0,1-.241-.51l-.788-3.455a1.327,1.327,0,0,0-.944-.986,13.286,13.286,0,0,1-3.053-1.265,1.306,1.306,0,0,0-.661-.175,1.323,1.323,0,0,0-.708.2l-3,1.888a.918.918,0,0,1-.533.189l-2.242-2.242a.968.968,0,0,1,.189-.533l1.888-3A1.331,1.331,0,0,0,31.2,29.13a13.209,13.209,0,0,1-1.269-3.053,1.327,1.327,0,0,0-.986-.944l-3.455-.783a.911.911,0,0,1-.5-.245l0-3.167a.932.932,0,0,1,.51-.241l3.455-.788a1.328,1.328,0,0,0,.986-.944A13.3,13.3,0,0,1,31.2,15.912a1.331,1.331,0,0,0-.033-1.368l-1.888-3a.894.894,0,0,1-.184-.533l2.237-2.242a.958.958,0,0,1,.533.189l3,1.888a1.331,1.331,0,0,0,1.368.033,13.38,13.38,0,0,1,3.053-1.269,1.327,1.327,0,0,0,.944-.986l.788-3.455a.887.887,0,0,1,.241-.5l3.171,0a1.009,1.009,0,0,1,.241.51l.783,3.455a1.325,1.325,0,0,0,.949.986,13.356,13.356,0,0,1,3.049,1.269,1.331,1.331,0,0,0,1.368-.033l3-1.888a.942.942,0,0,1,.533-.184l2.242,2.237a.918.918,0,0,1-.189.533l-1.888,3a1.331,1.331,0,0,0-.028,1.368,13.29,13.29,0,0,1,1.265,3.053,1.333,1.333,0,0,0,.991.944l3.45.788a.932.932,0,0,1,.51.241v3.171a1.009,1.009,0,0,1-.51.241l-3.455.783Zm4.049,1.812A2.971,2.971,0,0,0,63.363,24.1V20.938A2.975,2.975,0,0,0,60.782,18.1l-2.695-.613a16.519,16.519,0,0,0-.906-2.176l1.477-2.345a2.971,2.971,0,0,0-.184-3.832L56.232,6.894A2.965,2.965,0,0,0,52.4,6.71L50.055,8.182a15.885,15.885,0,0,0-2.176-.9l-.613-2.7A2.971,2.971,0,0,0,44.425,2H41.258a2.975,2.975,0,0,0-2.841,2.581l-.613,2.7a15.885,15.885,0,0,0-2.176.9L33.283,6.71a2.959,2.959,0,0,0-3.832.184L27.214,9.131a2.959,2.959,0,0,0-.184,3.832L28.5,15.308a15.885,15.885,0,0,0-.9,2.176l-2.7.613a2.975,2.975,0,0,0-2.581,2.841V24.1A2.971,2.971,0,0,0,24.9,26.946l2.7.613a15.934,15.934,0,0,0,.9,2.18L27.03,32.08a2.959,2.959,0,0,0,.184,3.832l2.237,2.242a2.971,2.971,0,0,0,3.832.184l2.345-1.477a15.885,15.885,0,0,0,2.176.9l.613,2.7a2.975,2.975,0,0,0,2.841,2.581h3.166a2.971,2.971,0,0,0,2.841-2.581l.613-2.695a16.58,16.58,0,0,0,2.18-.906L52.4,38.337a2.97,2.97,0,0,0,3.832-.184l2.242-2.242a2.971,2.971,0,0,0,.184-3.832l-1.477-2.345a15.885,15.885,0,0,0,.9-2.176l2.7-.613Z" fill="#030403"/>
          <path id="Path_1404411" data-name="Path 1404411" d="M53.618,80.334H31.848V78.951h21.77v1.383ZM33.6,66.3H51.867v9.986H33.6Zm2.732-6.036a2.517,2.517,0,0,1,.1-.967,1.716,1.716,0,0,1,.732-.1H48.3a1.742,1.742,0,0,1,.732.1,2.639,2.639,0,0,1,.1.967v3.374H48.28V61.528a1.331,1.331,0,1,0-2.662,0v2.114H39.852V61.528a1.331,1.331,0,0,0-2.662,0v2.114h-.854V60.268ZM54.529,76.412V66.2a2.592,2.592,0,0,0-2.619-2.558H51.8V60.267c0-1.019,0-3.728-3.492-3.728H37.167c-3.5,0-3.5,2.709-3.5,3.728v3.374h-.109A2.592,2.592,0,0,0,30.942,66.2V76.412a2.534,2.534,0,0,0-1.756,2.407v1.534A2.648,2.648,0,0,0,31.83,83H53.637a2.653,2.653,0,0,0,2.648-2.647V78.819a2.54,2.54,0,0,0-1.756-2.407Z" fill="#030403"/>
          <path id="Path_1404412" data-name="Path 1404412" d="M68.549,61.627a.7.7,0,1,1,.7-.7A.705.705,0,0,1,68.549,61.627Zm0-4.068a3.365,3.365,0,1,0,3.365,3.365A3.374,3.374,0,0,0,68.549,57.559Z" fill="#030403"/>
          <path id="Path_1404413" data-name="Path 1404413" d="M42.735,53.269a3.294,3.294,0,1,1,3.294-3.294A3.3,3.3,0,0,1,42.735,53.269Zm0-9.25a5.956,5.956,0,1,0,5.956,5.956A5.962,5.962,0,0,0,42.735,44.019Z" fill="#030403"/>
          <path id="Path_1404414" data-name="Path 1404414" d="M16.921,61.646a.7.7,0,0,1,0-1.4.7.7,0,1,1,0,1.4Zm0-4.063a3.365,3.365,0,1,0,3.365,3.365A3.367,3.367,0,0,0,16.921,57.582Z" fill="#030403"/>
          <path id="Path_1404415" data-name="Path 1404415" d="M27.8,69.966H6.039V68.583H27.8ZM7.79,55.931H26.053v9.986H7.79Zm2.732-6.036a2.6,2.6,0,0,1,.1-.963,1.738,1.738,0,0,1,.732-.1H22.495a1.706,1.706,0,0,1,.727.1,2.408,2.408,0,0,1,.1.963v3.374h-.854V51.155a1.333,1.333,0,0,0-2.666,0v2.114H14.038V51.155a1.331,1.331,0,0,0-2.662,0v2.114h-.854V49.895ZM30.47,69.985V68.451a2.536,2.536,0,0,0-1.751-2.407V55.832A2.6,2.6,0,0,0,26.1,53.269h-.109V49.895c0-1.019,0-3.723-3.492-3.723H11.353c-3.5,0-3.5,2.7-3.5,3.723v3.374h-.1a2.6,2.6,0,0,0-2.624,2.562V66.039a2.541,2.541,0,0,0-1.756,2.411v1.534a2.644,2.644,0,0,0,2.643,2.643H27.827a2.644,2.644,0,0,0,2.643-2.643Z" fill="#030403"/>
          <path id="Path_1404416" data-name="Path 1404416" d="M16.921,36.285a3.294,3.294,0,1,1-3.294,3.294A3.3,3.3,0,0,1,16.921,36.285Zm0,9.25a5.958,5.958,0,1,0-5.956-5.956A5.966,5.966,0,0,0,16.921,45.534Z" fill="#030403"/>
          <path id="Path_1404417" data-name="Path 1404417" d="M68.549,36.285a3.294,3.294,0,1,1-3.3,3.294A3.3,3.3,0,0,1,68.549,36.285Zm0,9.25a5.958,5.958,0,1,0-5.96-5.956A5.965,5.965,0,0,0,68.549,45.534Z" fill="#030403"/>
          <path id="Path_1404418" data-name="Path 1404418" d="M79.432,69.985H57.662v-1.4h21.77ZM59.418,55.931H77.676v9.986H59.418Zm2.728-6.036a2.4,2.4,0,0,1,.1-.963,1.7,1.7,0,0,1,.727-.1H74.118a1.706,1.706,0,0,1,.727.1,2.408,2.408,0,0,1,.1.963v3.374h-.854V51.155a1.331,1.331,0,0,0-2.662,0v2.114H65.666V51.155a1.333,1.333,0,0,0-2.666,0v2.114h-.854V49.895Zm18.2,16.149V55.832a2.6,2.6,0,0,0-2.624-2.562H77.61V49.895c0-1.019,0-3.723-3.492-3.723H62.976c-3.492,0-3.492,2.7-3.492,3.723v3.374h-.109a2.6,2.6,0,0,0-2.624,2.562V66.044A2.541,2.541,0,0,0,55,68.455V70a2.65,2.65,0,0,0,2.652,2.647h21.8A2.649,2.649,0,0,0,82.093,70V68.455a2.541,2.541,0,0,0-1.751-2.411Z" fill="#030403"/>
          <path id="Path_1404419" data-name="Path 1404419" d="M42.844,27.517a4.993,4.993,0,1,1,4.993-4.993A5,5,0,0,1,42.844,27.517Zm0-12.652A7.657,7.657,0,1,0,50.5,22.524a7.667,7.667,0,0,0-7.655-7.659Z" fill="#030403"/>
        </g>
      </g>
    </g>
  </g>
</svg>
