<svg xmlns="http://www.w3.org/2000/svg" xmlns:xlink="http://www.w3.org/1999/xlink" width="118" height="118" viewBox="0 0 118 118">
  <defs>
    <filter id="Rectangle_411831" x="0" y="0" width="118" height="118" filterUnits="userSpaceOnUse">
      <feOffset dy="3" input="SourceAlpha"/>
      <feGaussianBlur stdDeviation="3" result="blur"/>
      <feFlood flood-opacity="0.161"/>
      <feComposite operator="in" in2="blur"/>
      <feComposite in="SourceGraphic"/>
    </filter>
    <clipPath id="clip-path">
      <rect id="Rectangle_432357" data-name="Rectangle 432357" width="82" height="81" transform="translate(337.051 2869)" fill="#fff" stroke="#707070" stroke-width="1"/>
    </clipPath>
  </defs>
  <g id="Group_1253479" data-name="Group 1253479" transform="translate(-319 -2853)">
    <g transform="matrix(1, 0, 0, 1, 319, 2853)" filter="url(#Rectangle_411831)">
      <g id="Rectangle_411831-2" data-name="Rectangle 411831" transform="translate(9 6)" fill="#a4e0d4" stroke="#fff" stroke-width="2">
        <path d="M5,0H68a32,32,0,0,1,32,32V95a5,5,0,0,1-5,5H32A32,32,0,0,1,0,68V5A5,5,0,0,1,5,0Z" stroke="none"/>
        <path d="M5,1H68A31,31,0,0,1,99,32V95a4,4,0,0,1-4,4H32A31,31,0,0,1,1,68V5A4,4,0,0,1,5,1Z" fill="none"/>
      </g>
    </g>
    <g id="Mask_Group_1099587" data-name="Mask Group 1099587" clip-path="url(#clip-path)">
      <g id="Fill_out_line" data-name="Fill out line" transform="translate(334.846 2866.291)">
        <path id="Path_1404158" data-name="Path 1404158" d="M29.7,12.151h43.2V74.258H29.7Z" fill="#af7d4d"/>
        <path id="Path_1404159" data-name="Path 1404159" d="M35.1,17.552h32.4V68.857H35.1Z" fill="#f0de9c"/>
        <path id="Path_1404160" data-name="Path 1404160" d="M56.706,17.552h.074a3.439,3.439,0,0,1-3.124-4.876L54.981,9.8a4.047,4.047,0,1,0-7.352,0l1.325,2.877a3.439,3.439,0,0,1-3.124,4.876H45.9a5.4,5.4,0,0,0-5.4,5.4h21.6a5.4,5.4,0,0,0-5.4-5.4Zm-5.4-8.1a1.35,1.35,0,1,1,1.35-1.35,1.35,1.35,0,0,1-1.35,1.35Z" fill="#c6d6e2"/>
        <path id="Path_1404161" data-name="Path 1404161" d="M58.056,72.908l-9.451,9.451H45.77A32.268,32.268,0,0,1,13.5,50.09V47.255L22.952,37.8,32.4,47.255l-2.7,2.7v.067q0,.646.051,1.283a16.136,16.136,0,0,0,14.8,14.8q.638.051,1.283.051H45.9l2.7-2.7Z" fill="#37a0c5"/>
        <path id="Path_1404162" data-name="Path 1404162" d="M52.655,67.507l-8.1,8.1a21,21,0,0,1-14.948-6.192l-3.163-3.163a21,21,0,0,1-6.192-14.948l8.1-8.1,4.05,4.05-2.7,2.7v.067q0,.646.051,1.283a16.136,16.136,0,0,0,14.8,14.8q.638.051,1.283.051H45.9l2.7-2.7Z" fill="#2d80b5"/>
        <path id="Path_1404163" data-name="Path 1404163" d="M16.267,40.566H29.631V53.93H16.267Z" transform="translate(-26.692 30.07) rotate(-45)" fill="#8ccee9"/>
        <path id="Path_1404164" data-name="Path 1404164" d="M41.916,66.215H55.28V79.578H41.916Z" transform="translate(-37.317 55.723) rotate(-45)" fill="#8ccee9"/>
        <path id="Path_1404165" data-name="Path 1404165" d="M72.908,75.608h-10.8v-2.7h9.451V13.5h-13.5V10.8H72.908a1.35,1.35,0,0,1,1.35,1.35V74.258a1.35,1.35,0,0,1-1.35,1.35Z"/>
        <path id="Path_1404166" data-name="Path 1404166" d="M31.053,37.8h-2.7V12.151A1.35,1.35,0,0,1,29.7,10.8H44.555v2.7h-13.5Z"/>
        <circle id="Ellipse_14594" data-name="Ellipse 14594" cx="1.35" cy="1.35" r="1.35" transform="translate(49.955 6.751)"/>
        <path id="Path_1404167" data-name="Path 1404167" d="M67.507,16.2H56.78a2.087,2.087,0,0,1-1.9-2.96l1.325-2.877a5.4,5.4,0,1,0-9.805,0l1.325,2.877a2.087,2.087,0,0,1-1.9,2.96H35.1a1.35,1.35,0,0,0-1.35,1.35V43.2h2.7V18.9h4.054a6.718,6.718,0,0,0-1.354,4.05A1.35,1.35,0,0,0,40.5,24.3h21.6a1.35,1.35,0,0,0,1.35-1.35A6.718,6.718,0,0,0,62.1,18.9h4.054V67.507h-5.4v2.7h6.751a1.35,1.35,0,0,0,1.35-1.35V17.552a1.35,1.35,0,0,0-1.35-1.35ZM42.086,21.6A4.058,4.058,0,0,1,45.9,18.9c.027,0,.056,0,.083,0a4.79,4.79,0,0,0,4.192-6.79L48.855,9.235a2.7,2.7,0,1,1,4.9,0l-1.325,2.876a4.79,4.79,0,0,0,4.192,6.79c.027,0,.056,0,.083,0a4.058,4.058,0,0,1,3.819,2.7Z"/>
        <path id="Path_1404168" data-name="Path 1404168" d="M41.854,60.756h-2.7V55.364a1.35,1.35,0,0,1,1.35-1.35h8.1a1.35,1.35,0,0,1,1.35,1.35v4.042h-2.7V56.715h-5.4Z"/>
        <path id="Path_1404169" data-name="Path 1404169" d="M52.655,32.412h10.8v2.7h-10.8Z"/>
        <path id="Path_1404170" data-name="Path 1404170" d="M52.655,45.914h10.8v2.7h-10.8Z"/>
        <path id="Path_1404171" data-name="Path 1404171" d="M52.655,59.406h9.451v2.7H52.655Z"/>
        <path id="Path_1404172" data-name="Path 1404172" d="M50.35,38.207l-2.305,2.305H40.5a1.35,1.35,0,0,0-1.35,1.35v8.092a1.35,1.35,0,0,0,1.35,1.35h8.1a1.35,1.35,0,0,0,1.35-1.35V42.423l2.305-2.305Zm-3.1,10.4h-5.4V43.213h3.49L43.6,44.958l1.91,1.91,1.745-1.745Z"/>
        <path id="Path_1404173" data-name="Path 1404173" d="M50.35,24.716l-2.3,2.3H40.5a1.35,1.35,0,0,0-1.35,1.35v8.092a1.35,1.35,0,0,0,1.35,1.35h8.1a1.35,1.35,0,0,0,1.35-1.35V28.93l2.305-2.305Zm-3.1,10.4h-5.4V29.72h3.492L43.6,31.467l1.91,1.909,1.745-1.745Z"/>
        <path id="Path_1404174" data-name="Path 1404174" d="M48.605,83.709H45.769A33.618,33.618,0,0,1,12.151,50.091V47.255a1.35,1.35,0,0,1,.4-.955L22,36.849a1.35,1.35,0,0,1,1.909,0L33.358,46.3a1.35,1.35,0,0,1,0,1.91l-2.3,2.3A14.784,14.784,0,0,0,45.353,64.8l2.3-2.3a1.35,1.35,0,0,1,1.909,0l9.451,9.451a1.35,1.35,0,0,1,0,1.91L49.56,83.313a1.35,1.35,0,0,1-.955.4ZM14.852,47.814v2.277A30.918,30.918,0,0,0,45.769,81.008h2.277l8.1-8.1-7.542-7.542-1.746,1.746a1.35,1.35,0,0,1-.955.4h-.068A17.484,17.484,0,0,1,28.353,50.023v-.068a1.35,1.35,0,0,1,.4-.955l1.746-1.746-7.542-7.542Z"/>
        <path id="Path_1404175" data-name="Path 1404175" d="M22.952,58.056a1.346,1.346,0,0,1-.955-.4l-5.4-5.4,1.909-1.91L22.952,54.8l3.1-3.1,1.909,1.91-4.05,4.05a1.346,1.346,0,0,1-.955.4Z"/>
        <path id="Path_1404176" data-name="Path 1404176" d="M43.6,79.263l-5.4-5.4a1.35,1.35,0,0,1,0-1.91l4.05-4.05,1.909,1.91-3.1,3.1,4.446,4.446Z"/>
        <path id="Path_1404177" data-name="Path 1404177" d="M34.5,74.6a22.516,22.516,0,0,1-5.847-4.226l-3.163-3.163a22.52,22.52,0,0,1-4.226-5.847l2.414-1.209A19.824,19.824,0,0,0,27.4,65.3l3.164,3.164a19.822,19.822,0,0,0,5.146,3.721Z"/>
      </g>
    </g>
  </g>
</svg>
