<svg xmlns="http://www.w3.org/2000/svg" xmlns:xlink="http://www.w3.org/1999/xlink" width="118" height="118" viewBox="0 0 118 118">
  <defs>
    <filter id="Rectangle_411831" x="0" y="0" width="118" height="118" filterUnits="userSpaceOnUse">
      <feOffset dy="3" input="SourceAlpha"/>
      <feGaussianBlur stdDeviation="3" result="blur"/>
      <feFlood flood-opacity="0.161"/>
      <feComposite operator="in" in2="blur"/>
      <feComposite in="SourceGraphic"/>
    </filter>
    <clipPath id="clip-path">
      <rect id="Rectangle_432357" data-name="Rectangle 432357" width="82" height="81" transform="translate(337.051 2869)" fill="#fff" stroke="#707070" stroke-width="1"/>
    </clipPath>
  </defs>
  <g id="Group_1271090" data-name="Group 1271090" transform="translate(-319 -2853)">
    <g transform="matrix(1, 0, 0, 1, 319, 2853)" filter="url(#Rectangle_411831)">
      <g id="Rectangle_411831-2" data-name="Rectangle 411831" transform="translate(9 6)" fill="#a4e0d4" stroke="#fff" stroke-width="2">
        <path d="M5,0H68a32,32,0,0,1,32,32V95a5,5,0,0,1-5,5H32A32,32,0,0,1,0,68V5A5,5,0,0,1,5,0Z" stroke="none"/>
        <path d="M5,1H68A31,31,0,0,1,99,32V95a4,4,0,0,1-4,4H32A31,31,0,0,1,1,68V5A4,4,0,0,1,5,1Z" fill="none"/>
      </g>
    </g>
    <g id="Mask_Group_1099697" data-name="Mask Group 1099697" clip-path="url(#clip-path)">
      <g id="complaint_15685975" transform="translate(334.851 2866.3)">
        <g id="Group_1273473" data-name="Group 1273473">
          <path id="Path_1301126" data-name="Path 1301126" d="M63.183,72.617A3.894,3.894,0,0,1,59.3,76.664H11.092A3.881,3.881,0,0,1,7.21,72.782V15.717a1.077,1.077,0,0,1,.322-.768L19.46,3.022a1.075,1.075,0,0,1,.768-.322H59.3a3.881,3.881,0,0,1,3.881,3.881V47.842a14.066,14.066,0,0,1,2.772,16.923.741.741,0,0,0,.132.9l3.449,3.449a4.483,4.483,0,0,1,2.739,1.294l5.6,5.6a4.5,4.5,0,0,1-6.37,6.37l-5.6-5.6a4.463,4.463,0,0,1-1.289-2.734Z" fill-rule="evenodd"/>
          <path id="Path_1301127" data-name="Path 1301127" d="M66.743,73.6a2.308,2.308,0,0,0,.685,1.662l5.6,5.6a2.349,2.349,0,0,0,3.323-3.323l-5.6-5.6a2.349,2.349,0,0,0-4.006,1.66Z" fill="#993" fill-rule="evenodd"/>
          <path id="Path_1301128" data-name="Path 1301128" d="M66.991,69.615,64.57,67.2a2.9,2.9,0,0,1-.506-3.449,11.885,11.885,0,1,0-4.823,4.823,2.9,2.9,0,0,1,3.449.506L65.11,71.5a4.519,4.519,0,0,1,1.881-1.881ZM44.585,58.1a9.006,9.006,0,1,1,9.006,9.006A9.006,9.006,0,0,1,44.585,58.1Z" fill="#cc3" fill-rule="evenodd"/>
          <path id="Path_1301129" data-name="Path 1301129" d="M19.149,6.38l-8.26,8.268h6.532a1.733,1.733,0,0,0,1.728-1.728Z" fill="#a19c91" fill-rule="evenodd"/>
          <path id="Path_1301130" data-name="Path 1301130" d="M25.59,68.255a1.078,1.078,0,0,1,0-2.157H42.044a14.005,14.005,0,0,1-1.333-2.391H25.59a1.078,1.078,0,0,1,0-2.157H39.975a14.119,14.119,0,0,1-.1-6.461H25.59a1.078,1.078,0,1,1,0-2.155H40.529a13.837,13.837,0,0,1,1.222-2.391H25.59a1.078,1.078,0,1,1,0-2.157H43.448a14.048,14.048,0,0,1,17.578-2.205V6.581A1.731,1.731,0,0,0,59.3,4.855h-38v8.058a3.881,3.881,0,0,1-3.881,3.881H9.365V72.781a1.731,1.731,0,0,0,1.726,1.728H59.3a1.731,1.731,0,0,0,1.726-1.728V70.486a.737.737,0,0,0-.769-.022,14.048,14.048,0,0,1-16.368-2.209ZM39.606,9.887l7.323,12.684,7.356,12.742a5.037,5.037,0,0,1,.692,2.531,5.164,5.164,0,0,1-2.531,4.387,5.037,5.037,0,0,1-2.531.675H20.482a5.057,5.057,0,0,1-4.376-7.593L30.819,9.833a5.032,5.032,0,0,1,1.843-1.856,5.138,5.138,0,0,1,5.072,0A5.062,5.062,0,0,1,39.607,9.9ZM13.837,47.417h6.495A1.078,1.078,0,0,1,21.41,48.5V54.99a1.078,1.078,0,0,1-1.078,1.077H13.837A1.077,1.077,0,0,1,12.76,54.99v-6.5A1.078,1.078,0,0,1,13.837,47.417Zm0,13.162h6.495a1.078,1.078,0,0,1,1.078,1.078v6.495a1.078,1.078,0,0,1-1.078,1.078H13.837a1.078,1.078,0,0,1-1.077-1.078v-6.5A1.078,1.078,0,0,1,13.837,60.579Z" fill="#efeff0" fill-rule="evenodd"/>
          <path id="Path_1301131" data-name="Path 1301131" d="M45.07,23.643,37.712,10.906a2.9,2.9,0,0,0-1.058-1.078,3.037,3.037,0,0,0-2.919,0A2.869,2.869,0,0,0,32.679,10.9L17.966,36.39a2.9,2.9,0,0,0,2.519,4.357H49.909a2.869,2.869,0,0,0,1.458-.375,3.012,3.012,0,0,0,1.458-2.531,2.894,2.894,0,0,0-.4-1.451L45.065,23.648Zm-7.148,5.785a2.73,2.73,0,0,1-4.656,1.927,2.7,2.7,0,0,1-.8-1.991l-.359-13.645a3.093,3.093,0,0,1,5.277-2.207,2.967,2.967,0,0,1,.894,2.207l-.363,13.709ZM35.193,33.14a3.306,3.306,0,1,1-3.3,3.309,3.311,3.311,0,0,1,3.3-3.309Z" fill="#ffa71b" fill-rule="evenodd"/>
          <g id="Group_1273472" data-name="Group 1273472">
            <path id="Path_1301132" data-name="Path 1301132" d="M35.6,29.83a.57.57,0,0,0,.169-.4c.047-4.578.262-9.2.364-13.785a.921.921,0,0,0-.265-.607.939.939,0,0,0-1.608.607h0l.361,13.668a.666.666,0,0,0,.169.525.572.572,0,0,0,.81-.005Z" fill="#e43f39" fill-rule="evenodd"/>
            <path id="Path_1301133" data-name="Path 1301133" d="M36.01,35.634a1.153,1.153,0,1,0,0,1.63,1.153,1.153,0,0,0,0-1.63Z" fill="#e43f39" fill-rule="evenodd"/>
          </g>
        </g>
        <path id="Path_1301134" data-name="Path 1301134" d="M14.92,49.57h4.338v4.338H14.92Z" fill="#1184d1"/>
        <path id="Path_1301135" data-name="Path 1301135" d="M14.92,62.734h4.338v4.338H14.92Z" fill="#e43f39"/>
        <path id="Path_1301136" data-name="Path 1301136" d="M47.673,61.551h7.256a1.078,1.078,0,1,1,0,2.157H49.654a6.849,6.849,0,1,0-.562-10.773h5.837a1.078,1.078,0,1,1,0,2.155H47.437a6.858,6.858,0,0,0,.236,6.461Z" fill="#99e6fc" fill-rule="evenodd"/>
      </g>
    </g>
  </g>
</svg>
